<svg height="25" viewBox="0 0 34 26" fill="none"
    xmlns="http://www.w3.org/2000/svg">
    <path d="M2.6875 22.0792H17.5406L16.8313 19.7823L18.5281 21.2385L20.0833 22.6323L22.9167 25V2.57812C22.8458 1.18437 21.6458 0 20.1583 0L2.69271 0.003125C1.20625 0.003125 0 1.18958 0 2.58333V19.5C0 20.9698 1.20417 22.0792 2.6875 22.0792ZM13.675 5.91979L13.6406 5.93229L13.6531 5.91979H13.675ZM5.72604 7.24167C7.63542 5.85208 9.40521 5.91875 9.40521 5.91875L9.54792 6.05937C7.21146 6.61667 6.15208 7.66042 6.15208 7.66042C6.15208 7.66042 6.43542 7.52187 6.93021 7.31042C10.0771 6.07292 13.5135 6.1625 16.6948 7.72917C16.6948 7.72917 15.6333 6.75312 13.4406 6.12812L13.6344 5.9375C13.9375 5.93854 15.5417 5.99479 17.2583 7.25C17.2583 7.25 19.1792 10.5312 19.1792 14.5625C19.1156 14.4854 17.9875 16.2979 15.0844 16.3604C15.0844 16.3604 14.5927 15.8042 14.2427 15.3187C15.9406 14.8312 16.576 13.8562 16.576 13.8562C16.0187 14.2073 15.5104 14.4156 15.0979 14.624C14.4635 14.9031 13.8281 15.0406 13.1937 15.1812C10.1896 15.6687 8.50312 14.8531 6.90937 14.2062L6.36458 13.9292C6.36458 13.9292 6.99896 14.9042 8.62917 15.3917C8.20104 15.8802 7.77708 16.4354 7.77708 16.4354C4.875 16.3667 3.81667 14.5542 3.81667 14.5542C3.81667 10.5167 5.72604 7.24167 5.72604 7.24167Z" fill="white"/>
    <path d="M13.8625 13.3031C14.6031 13.3031 15.2062 12.6781 15.2062 11.9073C15.2062 11.1417 14.6062 10.5167 13.8625 10.5167V10.5198C13.125 10.5198 12.5208 11.1427 12.5187 11.9135C12.5187 12.6781 13.1219 13.3031 13.8625 13.3031Z" fill="white"/>
    <path d="M9.05209 13.3031C9.79271 13.3031 10.3958 12.6781 10.3958 11.9073C10.3958 11.1417 9.79688 10.5167 9.05625 10.5167L9.05209 10.5198C8.31146 10.5198 7.70834 11.1427 7.70834 11.9135C7.70834 12.6781 8.31146 13.3031 9.05209 13.3031V13.3031Z" fill="white"/>
    <rect x="11" y="11" width="22" height="13" rx="6.5" fill="#D7443E" stroke="#23272A" stroke-width="2"/>
    <path d="M19.085 21H14.2119V20.0332L16.5117 17.582C16.8275 17.237 17.0602 16.9359 17.21 16.6787C17.363 16.4215 17.4395 16.1774 17.4395 15.9463C17.4395 15.6305 17.3597 15.3831 17.2002 15.2041C17.0407 15.0218 16.8128 14.9307 16.5166 14.9307C16.1976 14.9307 15.9453 15.0413 15.7598 15.2627C15.5775 15.4808 15.4863 15.7689 15.4863 16.127H14.0703C14.0703 15.694 14.1729 15.2985 14.3779 14.9404C14.5863 14.5824 14.8792 14.3024 15.2568 14.1006C15.6344 13.8955 16.0625 13.793 16.541 13.793C17.2734 13.793 17.8415 13.9688 18.2451 14.3203C18.652 14.6719 18.8555 15.1683 18.8555 15.8096C18.8555 16.1611 18.7643 16.5192 18.582 16.8838C18.3997 17.2484 18.0872 17.6732 17.6445 18.1582L16.0283 19.8623H19.085V21ZM21.9316 18.8809L21.4238 19.3887V21H20.0127V13.5H21.4238V17.6553L21.6973 17.3037L23.0498 15.7168H24.7441L22.835 17.9189L24.9102 21H23.2891L21.9316 18.8809ZM28.2012 17.0205H29.9639V18.2949H28.2012V20.2871H26.8584V18.2949H25.0908V17.0205H26.8584V15.1113H28.2012V17.0205Z" fill="white"/>
</svg>
