<?xml version="1.0" encoding="iso-8859-1"?>
<!-- Generator: Adobe Illustrator 19.0.0, SVG Export Plug-In . SVG Version: 6.00 Build 0)  -->
<svg version="1.1" id="Layer_1"
    xmlns="http://www.w3.org/2000/svg"
    xmlns:xlink="http://www.w3.org/1999/xlink" height="25" viewBox="0 0 512 512" style="enable-background:new 0 0 512 512;" xml:space="preserve">
    <g>
        <path d="M256,132.129c-68.302,0-123.871,55.569-123.871,123.871S187.698,379.871,256,379.871
			c43.574,0,81.937-22.635,104.024-56.744c16.151,14.722,37.614,23.712,61.138,23.712C471.25,346.839,512,306.088,512,256
			C512,114.842,397.16,0,256,0S0,114.842,0,256s114.84,256,256,256c68.38,0,132.667-26.629,181.02-74.98l-35.036-35.036
			C362.99,440.977,311.146,462.452,256,462.452c-113.837,0-206.452-92.614-206.452-206.452S142.163,49.548,256,49.548
			S462.452,142.163,462.452,256c0,22.767-18.523,41.29-41.29,41.29c-22.767,0-41.29-18.523-41.29-41.289V256
			C379.871,187.698,324.302,132.129,256,132.129z M256,330.323c-40.983,0-74.323-33.341-74.323-74.323
			c0-40.982,33.339-74.323,74.323-74.323s74.323,33.341,74.323,74.323C330.323,296.981,296.983,330.323,256,330.323z" fill="#808080"/>
    </g>
</svg>
