<svg height="25" viewBox="0 0 34 25" fill="none"
    xmlns="http://www.w3.org/2000/svg">
    <path d="M13.1837 10.9613C15.6757 10.9613 17.696 8.5075 17.696 5.48068C17.696 2.4538 17.0326 0 13.1837 0C9.33467 0 8.67138 2.4538 8.67138 5.48068C8.67145 8.5075 10.6917 10.9613 13.1837 10.9613Z" fill="#808080"/>
    <path d="M21.6966 19.1083C21.6132 13.8354 20.9245 12.3329 15.6547 11.3818C15.6547 11.3818 14.9128 12.327 13.1838 12.327C11.4549 12.327 10.7131 11.3818 10.7131 11.3818C5.50079 12.3224 4.77013 13.8027 4.6741 18.9369C4.66628 19.3562 4.66268 19.3782 4.66126 19.3295C4.66153 19.4207 4.66194 19.5893 4.66194 19.8835C4.66194 19.8835 5.91658 22.4127 13.1839 22.4127C20.4512 22.4127 21.706 19.8835 21.706 19.8835C21.706 19.6945 21.7061 19.5631 21.7063 19.4737C21.7048 19.5038 21.7019 19.4455 21.6966 19.1083Z" fill="#808080"/>
    <path d="M19.4457 9.98273C21.4697 9.98273 23.1105 7.98982 23.1105 5.53147C23.1105 3.07306 22.5717 1.08015 19.4457 1.08015C18.9199 1.08015 18.4674 1.13673 18.0782 1.24234C18.8002 2.57339 18.8992 4.1901 18.8992 5.48061C18.8992 6.94178 18.5031 8.33681 17.7736 9.49189C18.275 9.80499 18.8431 9.98273 19.4457 9.98273Z" fill="#808080"/>
    <path d="M26.3596 16.5995C26.2917 12.317 25.7324 11.0967 21.4524 10.3242C21.4524 10.3242 20.8499 11.092 19.4456 11.092C19.3876 11.092 19.3313 11.0902 19.2758 11.0877C20.1681 11.49 20.9797 12.0501 21.5775 12.8697C22.6109 14.2867 22.8484 16.1901 22.8975 18.9865C25.777 18.4175 26.3671 17.2293 26.3671 17.2293C26.3671 17.0744 26.3671 16.9682 26.3674 16.8956C26.3662 16.9211 26.3639 16.8754 26.3596 16.5995Z" fill="#808080"/>
    <path d="M6.92162 9.98273C7.52426 9.98273 8.09225 9.80499 8.59382 9.49196C7.86439 8.33688 7.46829 6.94185 7.46829 5.48067C7.46829 4.1901 7.56725 2.57339 8.28914 1.24241C7.89998 1.1368 7.44758 1.08022 6.92162 1.08022C3.79558 1.08022 3.25699 3.07313 3.25699 5.53154C3.25699 7.98982 4.89775 9.98273 6.92162 9.98273Z" fill="#808080"/>
    <path d="M7.09141 11.0876C7.03613 11.0901 6.97983 11.0919 6.92162 11.0919C5.51736 11.0919 4.91486 10.3242 4.91486 10.3242C0.634962 11.0967 0.0755923 12.3169 0.00781053 16.5995C0.00339588 16.8754 0.0011546 16.9211 0 16.8955C0.000135835 16.9681 0.000271671 17.0743 0.000271671 17.2291C0.000271671 17.2291 0.590476 18.4174 3.46978 18.9864C3.51902 16.1901 3.75646 14.2866 4.78996 12.8696C5.38763 12.0501 6.19918 11.4899 7.09141 11.0876Z" fill="#808080"/>
    <rect x="12.3441" y="11.5524" width="19.7232" height="11.6546" rx="5.8273" fill="#D7443E" stroke="#23272A" stroke-width="2"/>
    <path d="M21.1217 17.9801H21.9274V19.1178H21.1217V20.6559H19.7106V19.1178H16.7955L16.7321 18.2291L19.6959 13.5465H21.1217V17.9801ZM18.1383 17.9801H19.7106V15.4703L19.6178 15.6315L18.1383 17.9801ZM27.4742 17.7164C27.4742 18.6995 27.2708 19.4515 26.8639 19.9723C26.457 20.4931 25.8613 20.7535 25.0768 20.7535C24.302 20.7535 23.7096 20.498 23.2994 19.9869C22.8893 19.4759 22.6793 18.7434 22.6696 17.7897V16.4811C22.6696 15.4882 22.8746 14.7347 23.2848 14.2203C23.6982 13.706 24.2923 13.4489 25.067 13.4489C25.8418 13.4489 26.4342 13.7044 26.8444 14.2155C27.2545 14.7233 27.4645 15.4541 27.4742 16.4078V17.7164ZM26.0631 16.2809C26.0631 15.6917 25.9817 15.2636 25.819 14.9967C25.6595 14.7265 25.4088 14.5914 25.067 14.5914C24.735 14.5914 24.4892 14.72 24.3297 14.9772C24.1735 15.2311 24.0905 15.6298 24.0807 16.1735V17.902C24.0807 18.4814 24.1588 18.9127 24.3151 19.1959C24.4746 19.4759 24.7285 19.6158 25.0768 19.6158C25.4218 19.6158 25.6709 19.4808 25.8239 19.2106C25.9769 18.9404 26.0566 18.527 26.0631 17.9703V16.2809Z" fill="white"/>
</svg>
