<svg height="25" viewBox="0 0 29 27" fill="none"
    xmlns="http://www.w3.org/2000/svg">
    <g id="discord-icon-with-status">
        <path id="logo-circle" d="M13.5 26C20.4036 26 26 20.4036 26 13.5C26 6.59644 20.4036 1 13.5 1C6.59644 1 1 6.59644 1 13.5C1 20.4036 6.59644 26 13.5 26Z" fill="#8C9EFF" stroke="#23272A" stroke-width="2"/>
        <path id="logo" d="M19.1836 9.2373C19.1836 9.2373 17.5576 7.96289 15.6338 7.81641L15.4629 8.16309C17.2012 8.58789 17.9971 9.19824 18.832 9.94531C17.3965 9.21289 15.9756 8.52441 13.5049 8.52441C11.0342 8.52441 9.61328 9.21289 8.17773 9.94531C9.0127 9.19824 9.95996 8.51953 11.5469 8.16309L11.376 7.81641C9.35938 8.00684 7.82617 9.2373 7.82617 9.2373C7.82617 9.2373 6.00977 11.874 5.69727 17.0498C7.52832 19.1641 10.3115 19.1787 10.3115 19.1787L10.8926 18.4023C9.90625 18.0605 8.78809 17.4453 7.82617 16.3369C8.97363 17.2061 10.7119 18.1143 13.5098 18.1143C16.3076 18.1143 18.041 17.2109 19.1934 16.3369C18.2314 17.4453 17.1133 18.0605 16.127 18.4023L16.708 19.1787C16.708 19.1787 19.4912 19.1641 21.3223 17.0498C21 11.874 19.1836 9.2373 19.1836 9.2373ZM11.1904 15.6289C10.502 15.6289 9.94531 14.9941 9.94531 14.208C9.94531 13.4219 10.502 12.7871 11.1904 12.7871C11.8789 12.7871 12.4355 13.4219 12.4355 14.208C12.4355 14.9941 11.8789 15.6289 11.1904 15.6289ZM15.8096 15.6289C15.1211 15.6289 14.5645 14.9941 14.5645 14.208C14.5645 13.4219 15.1211 12.7871 15.8096 12.7871C16.498 12.7871 17.0547 13.4219 17.0547 14.208C17.0547 14.9941 16.4932 15.6289 15.8096 15.6289Z" fill="white"/>
        <g id="status">
            <circle id="status-circle" cx="22.582" cy="21.1172" r="4.88281" fill="#D7443E" stroke="#23272A" stroke-width="2"/>
            <rect id="status-bar" x="19.8107" y="20.299" width="5.59544" height="1.68919" rx="0.844595" fill="#23272A"/>
        </g>
    </g>
</svg>
