<svg height="25" viewBox="0 0 29 25" fill="none"
    xmlns="http://www.w3.org/2000/svg">
    <g id="discord-icon-with-status">
        <path id="logo-circle" d="M12.5 25C19.4036 25 25 19.4036 25 12.5C25 5.59644 19.4036 0 12.5 0C5.59644 0 0 5.59644 0 12.5C0 19.4036 5.59644 25 12.5 25Z" fill="#8C9EFF"/>
        <path id="logo" d="M18.1836 8.2373C18.1836 8.2373 16.5576 6.96289 14.6338 6.81641L14.4629 7.16309C16.2012 7.58789 16.9971 8.19824 17.832 8.94531C16.3965 8.21289 14.9756 7.52441 12.5049 7.52441C10.0342 7.52441 8.61328 8.21289 7.17773 8.94531C8.0127 8.19824 8.95996 7.51953 10.5469 7.16309L10.376 6.81641C8.35938 7.00684 6.82617 8.2373 6.82617 8.2373C6.82617 8.2373 5.00977 10.874 4.69727 16.0498C6.52832 18.1641 9.31152 18.1787 9.31152 18.1787L9.89258 17.4023C8.90625 17.0605 7.78809 16.4453 6.82617 15.3369C7.97363 16.2061 9.71191 17.1143 12.5098 17.1143C15.3076 17.1143 17.041 16.2109 18.1934 15.3369C17.2314 16.4453 16.1133 17.0605 15.127 17.4023L15.708 18.1787C15.708 18.1787 18.4912 18.1641 20.3223 16.0498C20 10.874 18.1836 8.2373 18.1836 8.2373ZM10.1904 14.6289C9.50195 14.6289 8.94531 13.9941 8.94531 13.208C8.94531 12.4219 9.50195 11.7871 10.1904 11.7871C10.8789 11.7871 11.4355 12.4219 11.4355 13.208C11.4355 13.9941 10.8789 14.6289 10.1904 14.6289ZM14.8096 14.6289C14.1211 14.6289 13.5645 13.9941 13.5645 13.208C13.5645 12.4219 14.1211 11.7871 14.8096 11.7871C15.498 11.7871 16.0547 12.4219 16.0547 13.208C16.0547 13.9941 15.4932 14.6289 14.8096 14.6289Z" fill="white"/>
        <g id="status">
            <circle id="status-circle" cx="22.582" cy="19.1172" r="4.88281" fill="#D7443E" stroke="#23272A" stroke-width="2"/>
            <rect id="status-bar" x="19.8107" y="18.299" width="5.59544" height="1.68919" rx="0.844595" fill="#23272A"/>
        </g>
    </g>
</svg>
